<svg xmlns="http://www.w3.org/2000/svg" viewBox="0 0 1024 1024"><defs><style>.cls-1{fill:#333;}</style></defs><title>bee_face_calm</title><g id="Doodles"><path class="cls-1" d="M452.88,347.39a18.1,18.1,0,0,0-10.8,17.92c.22,2.42,1.8,5.18,4.67,5,7.82-.43,14.16-7.84,11.61-15.74a5,5,0,0,0-5.84-3.6c-9.38,1.1-11.75,15.17-3.95,19.92,8.52,5.2,19.39-4.15,16.85-13.32-2.86-10.31-17.6-11.48-23-2.81s.28,20.43,10.41,21.39c12.46,1.18,17.14-15.84,5.68-20.83-5.73-2.5-8.49,6.81-2.83,9.28-.36-.16.09,1.13-.52,1.65-1,.84-2.94,0-3.74-.72-2-1.81-1.9-6.58,1.26-7.05,2.87-.42,5,3.44,1.5,4.14-1.33.27-.74-2.06.54-2.21l-5.84-3.6c.45,1.39.15,3.69-1.82,3.8l4.68,5a9,9,0,0,1,5.77-9.77c5.73-2.43,1-10.92-4.67-8.5Z"/><path class="cls-1" d="M544.69,342.41a18.17,18.17,0,0,0,5.06,20.41c1.92,1.59,4.92,2.26,6.86.16,5.25-5.69,4.37-15.67-3-19.29a5.06,5.06,0,0,0-6.68,1.59c-5.8,7.27,2.19,18.72,10.93,16.94,9.37-1.91,11.49-15.8,3.66-20.92-8-5.25-19.5,1.39-19.38,10.86.13,10.67,12.56,17.31,21.48,11.65,4.81-3.06,7.25-9.2,4.58-14.48s-8.51-7.32-14-5.21c-2.47.95-3,4.5-1.92,6.58,1.37,2.56,4.15,2.86,6.58,1.92-1.11.43.61.1.63,1,0,.69.25.2-.09,1.08-.59,1.55-3.17,1.85-4.44,1.42-2.76-.94-4.51-4.81-1.51-6.49,1.7-.95,4.78.15,3,2.49-1,1.34-2.1-.69-1.26-1.74L548.56,352c1.37.67,2.69,2.57,1.35,4l6.86.16a8.94,8.94,0,0,1-2.8-10.88c2.34-5.8-7-8.58-9.28-2.83Z"/><path class="cls-1" d="M475.94,395.75c14.11,31.79,58.85,23.57,63.47-9.84.85-6.18-8.85-6.47-9.7-.35-3.45,25-35.5,27.52-45.26,5.52-2.53-5.7-11-1-8.51,4.67Z"/></g></svg>