<svg xmlns="http://www.w3.org/2000/svg" xmlns:xlink="http://www.w3.org/1999/xlink" viewBox="0 0 1024 1024"><defs><style>.cls-1{fill:none;}.cls-2{fill:#fff;}.cls-3{fill:#333;}.cls-4{clip-path:url(#clip-path);}.cls-5{fill:#ffe45e;}</style><clipPath id="clip-path"><path class="cls-1" d="M427.4,486.74C411.66,489.86,398,500.15,388.27,513s-15.66,28-20.08,43.48c-20.9,72.93-7.37,154.95,35.83,217.31,21.61,31.19,49.79,57.16,77.72,82.84L512,884.42l30.26-27.83c27.93-25.68,56.11-51.65,77.72-82.84,43.2-62.36,56.73-144.38,35.83-217.31C651.39,541,645.4,525.77,635.73,513s-23.39-23.1-39.13-26.22Z"/></clipPath></defs><title>bee_body</title><g id="Doodles"><path class="cls-2" d="M632.22,617.88c27.94-27.08,71-30.32,109.79-27.82,11.56.74,23.29,1.9,34,6.21s20.57,12.2,24.73,23c3.84,10,2.53,21.17-.07,31.53a137.77,137.77,0,0,1-64,84.78c-12.49,7.22-26.4,12.48-40.81,13-19.57.78-38.69-7.17-54.61-18.58s-29.11-26.16-42.15-40.78Z"/><path class="cls-3" d="M639.46,625.11c19.58-18.64,47.11-24.4,73.33-25.35,14.46-.53,29.51-.31,43.82,1.93,13,2,28.16,7.08,34.14,20,5.9,12.76,0,29.51-4.76,41.77a123.85,123.85,0,0,1-20.29,34.33c-17.62,21.11-44.55,41-73.21,40.67-36.65-.43-63.63-31.26-86.07-56.41l1.6,12.4,33-71.41c2.31-5,1.41-11-3.67-14-4.42-2.59-11.67-1.37-14,3.67l-33,71.4c-2,4.4-1.66,8.74,1.6,12.4,24.14,27.05,51.5,55.94,89.26,61.4,35.54,5.14,70.26-14.58,93.87-39.9a147.25,147.25,0,0,0,27-40.3c7.2-16.19,13.34-34.71,10.71-52.61C810.08,607,796.56,593.75,780.17,587c-16.62-6.86-35.68-7.49-53.46-7.81-36.17-.63-74.57,5.62-101.72,31.47C615.43,619.74,629.92,634.19,639.46,625.11Z"/><path class="cls-2" d="M607.8,460.9a658.28,658.28,0,0,1,118.6-105c29.21-20,60.31-37.45,93.48-42.72,18.24-2.9,38-1.63,53.19,11.08,21.69,18.11,28.15,54.15,26.81,86.33-3.18,76.35-40.81,146.83-91.82,190.57s-114,62.8-176.16,65.33Z"/><path class="cls-3" d="M615,468.14c37.45-41.91,79.82-79.79,127-110.46,23.21-15.1,48.11-28.4,75.51-33.79,21.76-4.28,45.16-1.45,58.08,18.55,12.48,19.33,14.83,44.13,14.08,66.59A252.45,252.45,0,0,1,875.61,483c-15.84,45.79-44.6,87.54-82.79,117.5-45.77,35.9-103.32,53.27-160.92,55.75l10.23,10.23L634,596.84,621,486.43l-3-25.53c-.64-5.48-4.24-10.22-10.23-10.22-5,0-10.87,4.7-10.23,10.22l8.17,69.6,12.94,110.42,3,25.52c.62,5.3,4.18,10.49,10.22,10.23,55.83-2.4,111.56-17.56,158.17-49.07,45-30.43,79-74.13,99.59-124.21a277.36,277.36,0,0,0,19.56-79.63c2.44-26,1.25-53.67-9-78-4.77-11.35-11.51-22-21.22-29.79-11.27-9-24.77-13.38-39.09-14.21-28.76-1.65-58,9.88-82.89,23.2-26.51,14.17-51.09,32.12-74.52,50.86A665,665,0,0,0,616,436.93q-7.85,8.24-15.42,16.74C591.82,463.46,606.24,478,615,468.14Z"/><path class="cls-2" d="M391.78,617.88c-27.94-27.08-71-30.32-109.79-27.82-11.56.74-23.29,1.9-34.05,6.21s-20.57,12.2-24.73,23c-3.84,10-2.53,21.17.07,31.53a137.77,137.77,0,0,0,64,84.78c12.49,7.22,26.4,12.48,40.81,13,19.57.78,38.69-7.17,54.61-18.58s29.11-26.16,42.15-40.78Z"/><path class="cls-3" d="M399,610.65c-24-22.87-57.07-30.46-89.35-31.4-17.23-.51-35.29,0-52.21,3.54-16.7,3.51-34,12.71-41.86,28.57-8.46,17-4.7,36.77,1.37,53.93a151.91,151.91,0,0,0,24,43.39c20.58,26.24,52.87,48.87,87.12,50.19,44,1.7,77-32.09,104-62.35,3.3-3.7,3.62-8,1.6-12.4l-33-71.4c-2.32-5-9.55-6.27-14-3.67-5.14,3-6,9-3.67,14l33,71.41,1.6-12.4c-20.71,23.21-43.23,48.76-75.16,55.28-28.75,5.88-57.56-11.72-76.92-31.56a130.23,130.23,0,0,1-23.59-33.51c-6.08-12.33-11.37-27-10.84-40.91,1.2-31.84,46.81-31.59,69.31-31.74,29.6-.21,61.84,4.25,84.16,25.5C394.08,634.19,408.57,619.75,399,610.65Z"/><path class="cls-2" d="M416.2,460.9a658.28,658.28,0,0,0-118.6-105c-29.21-20-60.31-37.45-93.48-42.72-18.24-2.9-38-1.63-53.19,11.08-21.69,18.11-28.15,54.15-26.81,86.33,3.18,76.35,40.81,146.83,91.82,190.57s114,62.8,176.16,65.33Z"/><path class="cls-3" d="M423.43,453.67c-40.1-44.88-86.1-85.55-137.2-117.53-42.92-26.86-116.88-59-154-6.28-14.59,20.71-18.55,48.33-18.5,73.08a264.89,264.89,0,0,0,13.65,81.65c16.57,50.27,47.08,96.75,88.67,129.8,44.83,35.63,99.24,55.23,156,60.87,6.69.67,13.39,1.12,20.11,1.41,6,.25,9.6-4.93,10.22-10.23l8.17-69.6,12.94-110.41,3-25.53c.64-5.49-5.17-10.22-10.23-10.22-6.07,0-9.59,4.71-10.23,10.22l-8.16,69.6L384.86,640.92l-3,25.52,10.23-10.23c-51.25-2.21-101.92-16.09-145-44.4-41.15-27-72.76-66.81-92.17-111.89A254.49,254.49,0,0,1,135.57,427c-2.51-23.54-2.33-48.12,5.83-70.62,3.42-9.42,8.85-18.65,16.76-25,9.08-7.26,20.71-9.58,32.09-9.36,25.91.49,51.24,11.76,73.37,24.38C318.47,377.72,367.06,421.24,409,468.14,417.75,478,432.18,463.47,423.43,453.67Z"/><path class="cls-3" d="M427.4,486.74C411.66,489.86,398,500.15,388.27,513s-15.66,28-20.08,43.48c-20.9,72.93-7.37,154.95,35.83,217.31,21.61,31.19,49.79,57.16,77.72,82.84L512,884.42l30.26-27.83c27.93-25.68,56.11-51.65,77.72-82.84,43.2-62.36,56.73-144.38,35.83-217.31C651.39,541,645.4,525.77,635.73,513s-23.39-23.1-39.13-26.22Z"/><path class="cls-3" d="M423.81,473.72c-34.16,7.31-55,38.16-65.56,69.26-10.17,29.87-14.28,62.29-13,93.77a275.09,275.09,0,0,0,19.59,92.09c12.6,31,30.52,58.63,52.78,83.65,26.05,29.27,56,55,84.82,81.48a13.82,13.82,0,0,0,19.1,0c46.75-43,98.32-85,127.51-142.7a278.23,278.23,0,0,0,25.45-173.9c-5.3-29.65-15.21-61.86-37.5-83.29-12.33-11.86-28.38-20.84-45.74-20.84H505c-25.39,0-50.84-.52-76.22,0H427.4c-17.37,0-17.4,27,0,27H593.16c.93,0,1.89.07,2.81,0,.11,0,.5.07.58,0-.36.31-3.18-.82-1.27,0,1.59.71,3.52,1,5.18,1.55a57.68,57.68,0,0,1,14,8.22A67.57,67.57,0,0,1,627.06,524c7.9,11.8,12.63,24.77,16.39,38.4,14.54,52.75,10.41,109.77-11,160.8-10.35,24.73-26.33,48.91-44.63,69.56C567.28,816,544,836.66,521.19,857.65l-18.74,17.23h19.1c-46.1-42.39-97.19-83.43-125.09-140.87-24.48-50.39-31-110.3-17.75-164.56,4-16.34,9.19-32.24,18.72-46.19,7.91-11.58,19.6-20.52,33.56-23.5,7.13-1.53,11.28-9.87,9.43-16.61C438.39,475.77,431,472.19,423.81,473.72Z"/><polygon class="cls-3" points="512 985.54 548.78 858.12 512 884.42 475.22 858.12 512 985.54"/><g class="cls-4"><path class="cls-5" d="M196.64,631.87c30.67,37,69.48,68,111.66,90.86s88.54,39.06,136.09,45.7c25.43,3.54,50.76,5.69,76.45,4.5a400,400,0,0,0,78.48-11.48c51.83-13,101.15-36.46,146.46-64.48,51.46-31.83,98.87-69.84,145.8-107.89,7.29-5.91,11.43-18.62,11.43-27.58,0-9.57-4.25-21-11.43-27.58C884.15,527.1,874.39,522,864,522.5l-10.37,1.39a39,39,0,0,0-17.21,10c-17.31,14-34.68,28-52.31,41.62l7.89-6.1c-50.37,38.85-103.3,75.25-162.07,100.25l9.32-3.93c-31.88,13.42-65.22,23.33-99.55,28l10.37-1.4a358.5,358.5,0,0,1-93.08-.2l10.37,1.4a380,380,0,0,1-95.74-26.09l9.32,3.94a374.19,374.19,0,0,1-81.86-47.56l7.9,6.1a349.87,349.87,0,0,1-55.2-53.19c-6-7.27-18.5-11.43-27.57-11.43-9.57,0-21,4.25-27.58,11.43-6.82,7.43-11.89,17.19-11.42,27.57.48,10.88,4.48,19.23,11.42,27.58Z"/><path class="cls-5" d="M196.64,491.64c30.67,37,69.48,68,111.66,90.86s88.54,39.06,136.09,45.7c25.43,3.54,50.76,5.69,76.45,4.5a400.75,400.75,0,0,0,78.48-11.47c51.83-13,101.15-36.46,146.46-64.49,51.46-31.83,98.87-69.84,145.8-107.89,7.29-5.91,11.43-18.62,11.43-27.58,0-9.56-4.25-21-11.43-27.58-7.43-6.82-17.19-11.88-27.57-11.42l-10.37,1.39a39.07,39.07,0,0,0-17.21,10c-17.31,14-34.68,28-52.31,41.62l7.89-6.09c-50.37,38.84-103.3,75.24-162.07,100.24l9.32-3.93c-31.88,13.43-65.22,23.33-99.55,28l10.37-1.39a358.94,358.94,0,0,1-93.08-.2l10.37,1.39a380.39,380.39,0,0,1-95.74-26.08l9.32,3.93a373.75,373.75,0,0,1-81.86-47.55l7.9,6.09a349.87,349.87,0,0,1-55.2-53.19c-6-7.27-18.5-11.42-27.57-11.42-9.57,0-21,4.24-27.58,11.42-6.82,7.43-11.89,17.19-11.42,27.58.48,10.87,4.48,19.22,11.42,27.57Z"/></g><path class="cls-3" d="M423.81,473.72c-34.16,7.31-55,38.16-65.56,69.26-10.17,29.87-14.28,62.29-13,93.77a275.09,275.09,0,0,0,19.59,92.09c12.6,31,30.52,58.63,52.78,83.65,26.05,29.27,56,55,84.82,81.48a13.82,13.82,0,0,0,19.1,0c46.75-43,98.32-85,127.51-142.7a278.23,278.23,0,0,0,25.45-173.9c-5.3-29.65-15.21-61.86-37.5-83.29-12.33-11.86-28.38-20.84-45.74-20.84H505c-25.39,0-50.84-.52-76.22,0H427.4c-17.37,0-17.4,27,0,27H593.16c.93,0,1.89.07,2.81,0,.11,0,.5.07.58,0-.36.31-3.18-.82-1.27,0,1.59.71,3.52,1,5.18,1.55a57.68,57.68,0,0,1,14,8.22A67.57,67.57,0,0,1,627.06,524c7.9,11.8,12.63,24.77,16.39,38.4,14.54,52.75,10.41,109.77-11,160.8-10.35,24.73-26.33,48.91-44.63,69.56C567.28,816,544,836.66,521.19,857.65l-18.74,17.23h19.1c-46.1-42.39-97.19-83.43-125.09-140.87-24.48-50.39-31-110.3-17.75-164.56,4-16.34,9.19-32.24,18.72-46.19,7.91-11.58,19.6-20.52,33.56-23.5,7.13-1.53,11.28-9.87,9.43-16.61C438.39,475.77,431,472.19,423.81,473.72Z"/><circle class="cls-2" cx="497.6" cy="364.02" r="158.34"/><path class="cls-3" d="M643.1,391.85A148.38,148.38,0,0,1,520.9,510.39c-61.3,10.22-123.9-21.5-153.51-75.77S345.84,310.83,387.44,265c42-46.31,109.75-61.7,167.57-37.6,56.31,23.47,92.74,81.35,90.64,142a146.13,146.13,0,0,1-2.55,22.46c-1,5.42,1.52,11,7.15,12.58,5,1.38,11.53-1.69,12.58-7.14a171.45,171.45,0,0,0-11.75-102.87A168.27,168.27,0,0,0,484.39,196a171.2,171.2,0,0,0-93.51,37.64c-54.71,44.14-76.09,121.73-51.81,187.69s88.07,111.33,158.71,111.33c70.19,0,134-45.27,158.21-110.92a164.05,164.05,0,0,0,6.84-24.41c1.09-5.41-1.55-11.05-7.14-12.58C650.64,383.32,644.2,386.41,643.1,391.85Z"/><path class="cls-3" d="M569.87,214.53c15.73-52.63,48.82-97.81,87.78-135.79C669.06,67.63,681,57.09,693.32,47L676.23,29.91c-31.55,29-58.9,62-87.59,93.68-4.38,4.84-4.77,12.31,0,17.09,4.45,4.44,12.69,4.86,17.09,0C634.42,109,661.77,76,693.32,47c4.8-4.41,4.47-12.61,0-17.09-5-5-12-4.15-17.09,0-44.42,36.41-85.07,79.75-111,131.45a289.1,289.1,0,0,0-18.65,46.75c-4.46,14.93,18.85,21.31,23.31,6.42Z"/><path class="cls-3" d="M470.64,206.45a616.13,616.13,0,0,0-48.3-97.71q-14-22.78-29.95-44.25c-9.78-13.13-22.17-34.87-41.32-33.39-8.32.64-16.12,10.06-10.43,18.18,22.75,32.5,48.51,62.63,73.88,93.08,4.18,5,12.76,4.32,17.08,0,5-5,4.2-12.06,0-17.09-24.05-28.86-48.52-57.38-70.1-88.19L351.07,55.27c2.1-.17,2.55.11,4.62,1.9,2.83,2.45,5.11,5.62,7.42,8.54q7.32,9.27,14.2,18.89,14.29,19.88,26.93,40.91a578.93,578.93,0,0,1,43.09,87.37c2.38,6.07,8.11,10.29,14.87,8.44,5.79-1.6,10.83-8.76,8.44-14.87Z"/></g></svg>