<svg xmlns="http://www.w3.org/2000/svg" viewBox="0 0 1024 1024"><defs><style>.cls-1,.cls-3{fill:#edafb8;}.cls-1{stroke:#d88c9a;stroke-miterlimit:10;stroke-width:5px;}.cls-2{fill:#333;}.cls-4{fill:#d88c9a;}</style></defs><title>bee_just stinger</title><g id="Ebene_1" data-name="Ebene 1"><polygon class="cls-1" points="525.73 896.78 481.12 879.36 481.12 817.6 558.99 833.57 525.73 896.78"/></g><g id="Doodles"><polygon class="cls-2" points="512 985.54 548.78 858.12 512 884.42 475.22 858.12 512 985.54"/><path class="cls-3" d="M515.07,844.91c12.82,7.1,35.28,19.67,47.78,12,11-6.75,13.31-21.5,14.49-34.37.26-2.75.5-5.59-.3-8.23-1.7-5.64-7.61-8.89-13.28-10.49-9.81-2.77-20.75-2.23-29.71,2.63s-10.25,14.93-10.57,25.12c-.21,6.84-3.1,13.36-5.56,19.75-4.06,10.51-18.13,12.31-26.65,19.68-2.63,2.28-5.32,5.36-8.78,5-2.95-.32-4.95-3.09-6.35-5.7a57.35,57.35,0,0,1-6.42-33.19c7.29,2.11,12.94,7.88,19.9,10.89,8.26,3.58,18.58,2.73,25.45-3.09s9.29-16.69,4.59-24.36c-5.94-9.69-19.42-11.09-30.69-9.66-4.33.54-8.88,1.46-12.11,4.41-6.76,6.15-4.34,17.12-1.39,25.77"/><path class="cls-4" d="M511.29,851.39c14.43,8,34.49,20.25,51.55,13.79,9.29-3.51,15-12.09,18.18-21.14a73.67,73.67,0,0,0,3-14.46c.67-5.12,1.56-10.51.58-15.64-2-10.54-12.51-16.17-22.19-18.13-11-2.24-23.78-1.34-33.41,4.92-8.74,5.67-11.79,15.2-12.72,25.09-.49,5.12-.63,9.69-2.28,14.64-1.43,4.27-2.69,9.29-6.33,12.24-3.39,2.75-7.74,4.41-11.59,6.39s-10.22,4.9-12.44,8.68c-1.09,1.86-.26.2.11.7a22.85,22.85,0,0,1-2-3.48,45,45,0,0,1-3-7.79,53.39,53.39,0,0,1-1.64-20.09l-9.49,7.23c8.19,2.7,14.33,9.41,22.72,11.92a33,33,0,0,0,24.71-2.37c14-7.56,19.16-27,9.05-39.77-9.45-11.94-27.79-13-41.58-9.73-8.11,1.91-14.73,7.31-16.84,15.56-2,7.64,0,15.84,2.45,23.12,3,9.11,17.52,5.21,14.46-4-1.49-4.48-3.38-9.73-2.6-14.54.73-4.46,4.74-5.49,8.69-6.1,7.5-1.18,19.75-1.56,24.39,5.89,5,8.06-2.69,17.17-10.82,18.21-11.53,1.47-20.33-9.27-30.64-12.67-5-1.65-9.06,2.67-9.5,7.24a65,65,0,0,0,4.84,31.44c3.76,8.88,11.07,18.82,22,13.51,3.82-1.86,6.51-5.3,10.09-7.52s7.28-3.78,10.89-5.71c8.34-4.45,13-10,16.35-18.7A64.83,64.83,0,0,0,530.53,836c.66-4.55.34-9.2,1.34-13.7,2.08-9.35,10.23-12.45,19.27-12.6a32.43,32.43,0,0,1,13.63,2.42c4.29,1.95,5.5,4.17,5.22,8.8-.49,7.83-1.48,16.68-5.44,23.59-9.61,16.77-34.09.37-45.69-6-8.45-4.68-16,8.27-7.57,12.95Z"/></g></svg>