<svg xmlns="http://www.w3.org/2000/svg" viewBox="0 0 40.01 13.62"><defs><style>.cls-1{fill:#185689;}</style></defs><title>Element 7</title><g id="Ebene_2" data-name="Ebene 2"><g id="Doodles"><path class="cls-1" d="M4.91,0A5.61,5.61,0,0,0,.38,4.65a1.53,1.53,0,0,0,1,1.84,3.83,3.83,0,0,0,4.62-3.9,1.55,1.55,0,0,0-1.5-1.5C1.65.75-.07,4.81,1.94,6.8,4.13,9,8.07,6.94,8,4,7.83.69,3.48-.72,1.25,1.51a4.39,4.39,0,0,0,1.6,7.18,3.38,3.38,0,0,0,3.2-5.86C4.51,1.67,3,4.27,4.54,5.42c-.1-.08-.06.34-.28.46s-.88-.21-1.07-.49c-.48-.69-.1-2.11.88-2s1.26,1.39.16,1.35c-.42,0-.08-.67.32-.62l-1.5-1.5c0,.45-.22,1.12-.82,1l1,1.85A2.77,2.77,0,0,1,5.71,2.92C7.61,2.6,6.81-.3,4.91,0Z"/><path class="cls-1" d="M33.33,2.05a5.62,5.62,0,0,0,.07,6.5,1.53,1.53,0,0,0,2.05.54,3.82,3.82,0,0,0,.49-6,1.57,1.57,0,0,0-2.12,0C31.55,4.85,33.14,8.86,35.89,9c3,.1,4.59-3.93,2.6-6A4,4,0,0,0,31.88,4.8a4.39,4.39,0,0,0,5.63,5,3.5,3.5,0,0,0,2.42-4,3.33,3.33,0,0,0-3.84-2.56A1.5,1.5,0,0,0,35,5.09a1.54,1.54,0,0,0,1.85,1c-.37.05.17.07.12.34s.06.08-.11.32c-.29.42-1.09.33-1.44.11-.76-.48-1-1.77,0-2.07.58-.16,1.43.39.72,1-.4.33-.58-.36-.25-.62H33.82c.36.31.62,1,.12,1.31L36,7a2.78,2.78,0,0,1-.07-3.48C37,2,34.44.49,33.33,2.05Z"/><path class="cls-1" d="M10,5.19c2,10.58,16,11.3,19.81,1.58.7-1.8-2.2-2.58-2.9-.8-2.82,7.27-12.65,5.74-14-1.57-.36-1.9-3.25-1.1-2.9.79Z"/></g></g></svg>