<svg xmlns="http://www.w3.org/2000/svg" viewBox="0 0 1024 1024"><defs><style>.cls-1,.cls-3{fill:#fff;}.cls-1{opacity:0.5;}.cls-2{fill:#a2d2ff;}.cls-4{fill:#185689;}</style></defs><title>bubble_with_face</title><g id="Doodles"><circle class="cls-1" cx="511.63" cy="511.98" r="389.25"/><path class="cls-2" d="M889.76,512C888.16,670,789,814.91,638.92,868.18c-148,52.52-316.49,6.59-417.39-113.61C119.62,633.16,105.43,455.17,186.4,319,267.65,182.28,431.08,109.3,587.12,141.36,762.49,177.38,888,334,889.76,512c.14,14.3,22.38,14.34,22.24,0C910.32,346.2,807.76,195.73,652,137,494.45,77.5,310.46,126.78,203.4,256.51,96.2,386.4,81.37,575.16,169.14,719.42,255.87,862,425.48,936.58,589.22,904.78,776,868.52,910.09,700.58,912,512,912.14,497.66,889.9,497.65,889.76,512Z"/><path class="cls-3" d="M322.19,248.29c-39.64,20.22-75.09,51.29-93.29,91.91-6.29,14.06-10.49,29.54-8.59,44.84.68,5.51,2.93,11.79,8.25,13.4s10.56-2.29,14.72-6q24.15-21.36,46.6-44.56c16.75-17.3,33.18-36.07,40.45-59a70.5,70.5,0,0,0,3-31.6"/><path class="cls-2" d="M316.58,238.69c-35.66,19-68.37,44.89-89.11,80.16-11.88,20.21-31.89,63.63-11.13,84.49,23.36,23.47,59.67-25.56,73.88-39.88,29.59-29.83,56.92-61.65,54.19-106.17-.87-14.23-23.11-14.33-22.24,0,1.91,31.29-13.63,54.16-33.91,76.2-9.31,10.13-19.18,19.79-29.12,29.3q-7.77,7.43-15.72,14.65-17.21,4.11-11.26-9.21c-3.43-21.69,23.44-53.3,37-67.45,17-17.81,37.05-31.37,58.68-42.88,12.64-6.73,1.42-25.94-11.22-19.21Z"/><path class="cls-3" d="M743.8,290.56c28.31,17.56,48.82,45.88,61.52,76.68s18.11,64.11,21.14,97.29c2.24,24.59,3,50.3-6.72,73-2.11,4.89-4.81,9.73-9,13-9.21,7-22.43,4.39-33.1-.09-30.21-12.69-56.22-42.1-53.48-74.75,2.66-31.62,30.87-59.71,24.06-90.7-3.09-14.07-13-25.46-21.35-37.18S711,321.9,714,307.81s21.4-24.68,32.45-15.43"/><path class="cls-2" d="M738.18,300.16c43.56,29.22,63.66,77.51,72.47,127.62,3.7,21.09,6.53,43.19,6.12,64.67-.3,16.28-.59,51.26-27.85,50.09-9.85-.42-24.92-11.89-31.37-17.8-41.63-38.11-8.78-72,.83-114.07a63.12,63.12,0,0,0-3.21-39.51c-3.45-8.1-8.62-14.85-13.61-22q-5.32-6.93-10-14.32Q715.9,316,740.83,302c12.57,6.86,23.81-12.34,11.23-19.21-17.54-9.58-38.35-2.28-46.63,16.31-13.16,29.56,14.54,52.16,26.7,75.66,18.56,35.9-19.08,68.64-19.19,104.93-.08,27.51,15.95,51.85,37.55,67.86,18.08,13.42,47.65,27.38,68.06,10.8,24.66-20,21.43-66.28,19-93.8-6.17-70.7-26.37-142.12-88.17-183.58-11.92-8-23.07,11.27-11.23,19.21Z"/><path class="cls-4" d="M422.28,700.57c-13.21,2.23-24.24,13.36-26.13,26.66-.61,4.29,1,9.73,6.05,10.64,13.73,2.48,27.79-7.76,26.62-22.53-.41-5.09-3.67-8.06-8.65-8.65-16.73-2-26.64,21.49-15.07,32.95,12.65,12.53,35.36.79,34.73-16.18-.71-19.07-25.81-27.18-38.68-14.33s-7.93,35.56,9.24,41.4c21.14,7.19,36.28-20.42,18.44-33.81-8.9-6.69-17.53,8.33-8.73,14.94-.55-.42-.31,2-1.58,2.66-2,1-5.1-1.21-6.2-2.8-2.75-4-.57-12.2,5.1-11.71,5.16.45,7.28,8,.9,7.8-2.43-.08-.44-3.89,1.85-3.62l-8.65-8.65c.2,2.6-1.27,6.47-4.73,5.85l6,10.64c1.13-8,6-13.22,14-14.58,10.95-1.85,6.3-18.53-4.6-16.68Z"/><path class="cls-4" d="M586.16,712.23a32.41,32.41,0,0,0,.38,37.52c2.67,3.55,7.6,6,11.84,3.1,11.45-7.71,14-25.39,2.8-34.7-3.95-3.26-8.25-3.12-12.24,0-13.07,10.23-3.91,33.39,12,33.91,17.06.55,26.46-22.69,15-34.79-11.79-12.44-34.42-5.64-38.12,10.84-4.16,18.59,14.67,35.23,32.49,29.08,9.61-3.32,16.37-13,13.91-23.24-2.51-10.5-11.74-16.22-22.12-14.81-4.67.63-7.12,6.56-6,10.64,1.32,5,6,6.67,10.64,6-2.11.29,1,.43.68,2-.25,1.19.36.44-.6,1.83-1.67,2.44-6.27,1.91-8.3.63-4.4-2.77-5.83-10.21.06-11.89,3.35-1,8.24,2.24,4.15,5.56-2.35,1.9-3.35-2.06-1.47-3.54H588.94c2.1,1.74,3.62,5.57.7,7.53l11.84,3.1c-4.8-6.39-5-13.5-.38-20,6.46-9.1-8.54-17.75-14.94-8.74Z"/><path class="cls-4" d="M451.45,730.37c11.39,61,92.43,65.15,114.2,9.08,4-10.38-12.69-14.88-16.68-4.6-16.28,41.93-73,33.13-80.84-9.08-2-10.93-18.72-6.3-16.68,4.6Z"/></g></svg>