<svg xmlns="http://www.w3.org/2000/svg" viewBox="0 0 138.73 138.74"><defs><style>.cls-1,.cls-4{fill:#fff;}.cls-1{opacity:0.5;}.cls-2{fill:#a2d2ff;}.cls-3{fill:#185689;}</style></defs><title>Element 5</title><g id="Ebene_2" data-name="Ebene 2"><g id="Doodles"><circle class="cls-1" cx="69.3" cy="69.37" r="67.5"/><path class="cls-2" d="M134.87,69.37c-.28,27.4-17.48,52.53-43.5,61.77A66.26,66.26,0,0,1,19,111.44,66.14,66.14,0,0,1,12.9,35.9,66.17,66.17,0,0,1,82.39,5.1c30.41,6.25,52.17,33.4,52.48,64.27,0,2.48,3.88,2.48,3.86,0a70.28,70.28,0,0,0-45.09-65C66.32-6,34.42,2.57,15.85,25.07S-5.31,80.32,9.91,105.34a70.12,70.12,0,0,0,72.84,32.14c32.38-6.28,55.65-35.41,56-68.11C138.75,66.88,134.9,66.88,134.87,69.37Z"/><path class="cls-3" d="M53.81,102.07a5.59,5.59,0,0,0-4.53,4.62,1.53,1.53,0,0,0,1,1.85,3.83,3.83,0,0,0,4.62-3.91,1.56,1.56,0,0,0-1.5-1.5c-2.9-.34-4.62,3.73-2.61,5.72C53,111,57,109,56.85,106c-.12-3.31-4.48-4.71-6.71-2.48a4.39,4.39,0,0,0,1.6,7.18,3.38,3.38,0,0,0,3.2-5.87c-1.54-1.16-3,1.45-1.51,2.59-.1-.07-.06.35-.28.46s-.88-.21-1.07-.48c-.48-.69-.1-2.12.88-2s1.27,1.39.16,1.35c-.42,0-.08-.67.32-.63l-1.5-1.5c0,.45-.22,1.12-.82,1l1.05,1.84A2.79,2.79,0,0,1,54.6,105c1.9-.32,1.1-3.21-.79-2.89Z"/><path class="cls-3" d="M82.22,104.09a5.64,5.64,0,0,0,.07,6.51,1.54,1.54,0,0,0,2,.54,3.82,3.82,0,0,0,.49-6,1.56,1.56,0,0,0-2.12,0c-2.27,1.77-.68,5.79,2.07,5.88,3,.1,4.59-3.93,2.6-6a4,4,0,0,0-6.61,1.88,4.4,4.4,0,0,0,5.64,5,3.51,3.51,0,0,0,2.41-4A3.35,3.35,0,0,0,85,105.29a1.52,1.52,0,0,0-1,1.85,1.54,1.54,0,0,0,1.85,1c-.37,0,.17.08.12.35s.06.07-.11.31c-.29.43-1.08.33-1.44.11-.76-.48-1-1.77,0-2.06.58-.16,1.43.39.72,1-.4.33-.58-.35-.25-.61H82.71c.36.3.62,1,.12,1.31l2,.53a2.77,2.77,0,0,1-.07-3.47c1.12-1.58-1.48-3.08-2.59-1.52Z"/><path class="cls-3" d="M58.86,107.24c2,10.58,16,11.3,19.81,1.57.7-1.8-2.2-2.58-2.9-.79-2.82,7.27-12.65,5.74-14-1.58-.36-1.89-3.25-1.09-2.9.8Z"/><path class="cls-4" d="M36.45,23.64c-6.88,3.51-13,8.9-16.18,15.94a14.82,14.82,0,0,0-1.49,7.77c.12,1,.51,2,1.43,2.33s1.83-.4,2.55-1q4.2-3.7,8.09-7.73c2.9-3,5.75-6.26,7-10.24a12.14,12.14,0,0,0,.51-5.48"/><path class="cls-2" d="M35.48,22C29.29,25.27,23.62,29.76,20,35.88c-2.06,3.5-5.53,11-1.93,14.65,4.05,4.07,10.35-4.43,12.81-6.92C36,38.44,40.77,32.92,40.3,25.2c-.15-2.46-4-2.48-3.85,0,.33,5.43-2.37,9.39-5.88,13.22-1.62,1.75-3.33,3.43-5.05,5.08-.9.86-1.81,1.7-2.73,2.54q-3,.7-1.95-1.6c-.6-3.76,4.06-9.24,6.41-11.7a39.19,39.19,0,0,1,10.17-7.43c2.19-1.17.25-4.5-1.94-3.33Z"/><path class="cls-4" d="M109.56,31a28,28,0,0,1,10.67,13.3,57.78,57.78,0,0,1,3.66,16.87c.39,4.26.53,8.72-1.16,12.65A5.53,5.53,0,0,1,121.16,76c-1.6,1.22-3.89.76-5.74,0-5.24-2.21-9.75-7.3-9.27-13,.46-5.48,5.35-10.35,4.17-15.73-.54-2.44-2.25-4.41-3.7-6.44s-2.74-4.48-2.23-6.93,3.71-4.28,5.63-2.67"/><path class="cls-2" d="M108.59,32.64c7.55,5.06,11,13.44,12.56,22.13A59.37,59.37,0,0,1,122.21,66c0,2.82-.1,8.89-4.83,8.69-1.7-.08-4.32-2.06-5.43-3.09-7.22-6.61-1.53-12.48.14-19.78a11,11,0,0,0-.56-6.85,21.12,21.12,0,0,0-2.36-3.82c-.61-.8-1.19-1.63-1.73-2.48q-2.72-3.26,1.61-5.7c2.18,1.19,4.12-2.14,1.94-3.33a5.72,5.72,0,0,0-8.08,2.83c-2.29,5.13,2.52,9,4.63,13.12,3.22,6.22-3.31,11.9-3.33,18.19,0,4.78,2.77,9,6.51,11.77,3.14,2.33,8.26,4.75,11.8,1.88,4.28-3.48,3.72-11.5,3.3-16.27-1.07-12.26-4.57-24.65-15.29-31.83-2.06-1.39-4,2-1.94,3.33Z"/></g></g></svg>