<?xml version="1.0" encoding="utf-8"?>
<!-- Generator: Adobe Illustrator 23.0.1, SVG Export Plug-In . SVG Version: 6.00 Build 0)  -->
<svg version="1.1" id="Ebene_1" xmlns="http://www.w3.org/2000/svg" xmlns:xlink="http://www.w3.org/1999/xlink" x="0px" y="0px"
	 viewBox="0 0 224 96" style="enable-background:new 0 0 224 96;" xml:space="preserve">
<style type="text/css">
	.st0{fill:#EDF2F4;}
	.st1{fill:none;}
	.st2{fill:none;stroke:#99C1B9;stroke-width:3;stroke-linecap:round;stroke-linejoin:round;}
	.st3{fill:none;stroke:#000000;stroke-width:3;stroke-linecap:round;stroke-linejoin:round;}
	.st4{fill:#99C1B9;}
	.st5{fill:#FF0000;}
	.st6{fill:#EDAFB8;}
	.st7{fill:#D67B8C;}
	.st8{fill:#F7E1D7;}
	.st9{fill:#EDB8A4;}
	.st10{fill:#DEDBD2;}
	.st11{fill:#CCC2A8;}
	.st12{fill:#6FA59B;}
	.st13{fill:#C8B6FF;}
	.st14{fill:#8E7DBE;}
	.st15{fill:#4A5759;}
	.st16{fill:#A2D2FF;}
	.st17{fill:#2F3E3F;}
	.st18{fill:#333333;}
	.st19{fill:#808080;}
	.st20{fill:#A3B18A;}
	.st21{fill:none;stroke:#EDF2F4;stroke-width:3;stroke-linecap:round;stroke-linejoin:round;}
	.st22{fill:#666666;}
	.st23{fill:#74AA9F;}
	.st24{fill:#F1E3D3;}
	.st25{fill:#B0C4B1;}
</style>
<g>
	<rect x="0" class="st5" width="32" height="32"/>
</g>
<rect x="0" y="32" class="st6" width="32" height="32"/>
<rect x="0" y="64" class="st7" width="32" height="32"/>
<rect x="32" y="32" class="st8" width="32" height="32"/>
<rect x="32" y="64" class="st9" width="32" height="32"/>
<rect x="64" y="32" class="st10" width="32" height="32"/>
<rect x="64" y="64" class="st11" width="32" height="32"/>
<g>
	<rect x="96" y="32" class="st4" width="32" height="32"/>
</g>
<rect x="96" y="64" class="st12" width="32" height="32"/>
<rect x="128" y="32" class="st13" width="32" height="32"/>
<rect x="128" y="64" class="st14" width="32" height="32"/>
<rect x="160" y="32" class="st15" width="32" height="32"/>
<rect x="160" class="st16" width="32" height="32"/>
<g>
	<rect x="192" class="st5" width="32" height="32"/>
</g>
<rect x="160" y="64" class="st17" width="32" height="32"/>
<g>
	<rect x="192" y="32" class="st18" width="32" height="32"/>
</g>
<g>
	<rect x="192" y="64" width="32" height="32"/>
</g>
<g>
	<rect x="32" class="st1" width="32" height="32"/>
</g>
<g>
	<rect x="64" class="st19" width="32" height="32"/>
</g>
<g>
	<rect x="96" class="st4" width="32" height="32"/>
</g>
<rect x="128" class="st20" width="32" height="32"/>
<rect x="32" class="st0" width="32" height="32"/>
<g>
	<g>
		<path d="M6.1,9.6c2.1,1.8,4.3,3.6,6.5,5.3c1.5,1.2,3.6-0.9,2.1-2.1c-2.2-1.7-4.4-3.5-6.5-5.3C6.8,6.3,4.6,8.4,6.1,9.6L6.1,9.6z"/>
	</g>
</g>
<g>
	<g>
		<path d="M8.8,17.6c1.7-3.9,3.9-7.4,6.7-10.6c1.3-1.4-0.8-3.6-2.1-2.1c-3,3.4-5.4,7.1-7.2,11.2C5.5,17.8,8.1,19.4,8.8,17.6
			L8.8,17.6z"/>
	</g>
</g>
<g>
	<g>
		<path d="M17.6,8.2c0.8,1.1,1.6,2.1,2.5,3.1c0.9,0.9,2.1,1.7,2.8,2.8c1,1.6,3.6,0.1,2.6-1.5c-0.7-1.1-1.7-1.9-2.7-2.8
			c-1-0.9-1.8-1.9-2.6-3C19.1,5.2,16.5,6.7,17.6,8.2L17.6,8.2z"/>
	</g>
</g>
<g>
	<g>
		<path d="M19.3,16.4c1.4-3.1,3.2-6,5.5-8.6c1.3-1.4-0.8-3.6-2.1-2.1c-2.5,2.7-4.5,5.8-5.9,9.2C16,16.7,18.5,18.2,19.3,16.4
			L19.3,16.4z"/>
	</g>
</g>
<g>
	<g>
		<path d="M9.2,24.3c5.2-2.1,10.6-3.7,16.1-4.7c-0.3-1-0.5-1.9-0.8-2.9c-0.2,0.1-0.3,0.1-0.5,0.2c-1.8,0.6-1,3.5,0.8,2.9
			c0.2-0.1,0.3-0.1,0.5-0.2c1.8-0.6,1.1-3.2-0.8-2.9c-5.5,1-10.9,2.6-16.1,4.7C6.6,22.1,7.4,25,9.2,24.3L9.2,24.3z"/>
	</g>
</g>
<g>
	<g>
		<path d="M14.9,21.5c0.9,3,3.8,6.1,7.2,5.5c3.8-0.7,4-4.9,3.5-7.9c-0.3-1.9-3.2-1.1-2.9,0.8c0.2,1.4,0.6,4.3-1.6,4.2
			c-1.7-0.1-2.9-1.9-3.3-3.3C17.2,18.8,14.3,19.6,14.9,21.5L14.9,21.5z"/>
	</g>
</g>
<g>
	<g>
		<path d="M18.7,21.5c-0.2-0.1,0.1,0.2,0.2,0.2c0.1,0.1,0.1,0.2,0.1,0.1c0,0.1,0.1,0.1,0.1,0.2c0.2,0.3,0.4,0.6,0.5,0.9
			c0.4,0.7,1.4,0.9,2.1,0.5c0.7-0.4,0.9-1.3,0.5-2.1c-0.5-1-1.1-1.8-2-2.4c-0.7-0.5-1.7-0.1-2.1,0.5C17.7,20.2,18,21,18.7,21.5
			L18.7,21.5z"/>
	</g>
</g>
<g>
	<g>
		<path class="st22" d="M68.1,5.4c3.6-3.6-0.2,0.9-0.6,1.4c-0.7,1.1-1.4,2.2-1.7,3.6c-0.2,1.1-0.3,2.8,0.5,3.7c2.8,2.9,8-2.4,9.9-4
			c1.3-1.1,4.3-4.5,6.2-4.5c2.1,0-0.7,1.5-1.4,2.2c-2.4,2.2-5.1,4.1-7.5,6.3c-2.5,2.3-7.8,7.4-4.9,11.3c2.6,3.7,7.8-0.8,10-2.6
			c2.6-2.2,5-4.6,7.6-6.8c0.2-0.1,3.6-3.8,3.9-1.3c0.1,1-3,3.7-3.7,4.5c-1.7,1.8-7,6.7-4.7,9.6c2.7,3.3,8.4-2.8,10.7-3.7
			c-0.6-0.6-1.2-1.2-1.8-1.8c-0.3,2-1.1,3.3-0.5,5.3c0.6,1.8,3.5,1,2.9-0.8c-0.4-1.2,0.3-2.5,0.5-3.7c0.2-1-0.7-2.3-1.8-1.8
			c-1.7,0.7-4.2,3.4-5.8,3.5c-2.2,0.2,0.7-2.3,1.3-2.9c0.8-0.9,1.6-1.7,2.4-2.6c1.7-1.8,6.1-6.2,4-9c-2-2.7-5.9,0-7.8,1.4
			c-2.2,1.7-4.1,3.6-6.1,5.4c-1.1,1-2.2,2-3.4,2.9c-0.7,0.6-1.5,1.2-2.4,1.7c-2.1-1.1-2.5-2.1-1.1-3.2c1-2.5,19.9-14.2,12.7-17.3
			c-3.2-1.4-7.7,3-9.9,4.8c-0.6,0.5-4.2,3.9-4.6,3.7c-2.4-0.7,0.9-4.1,1.4-4.8c1-1.3,1.8-2.4,1.2-4c-0.2-0.5-0.5-1-1-1
			c-2.5-0.4-4.6,0.7-6.3,2.5C64.6,4.7,66.7,6.8,68.1,5.4L68.1,5.4z"/>
	</g>
</g>
<g>
	<g>
		<path class="st23" d="M103.5,28.2c4-7.8,10.3-18,18.5-22c1.7-0.8,0.2-3.4-1.5-2.6C112,7.7,105.2,18.4,101,26.6
			C100.1,28.4,102.7,29.9,103.5,28.2L103.5,28.2z"/>
	</g>
</g>
<g>
	<g>
		<path class="st23" d="M100.5,6.6c4.4,1.9,8.6,4.2,12,7.7c3.5,3.6,4.8,7.6,6.4,12.2c0.6,1.8,3.5,1,2.9-0.8
			c-1.7-4.7-2.9-8.8-6.3-12.6C111.8,9,107,6.2,102,4C100.2,3.2,98.7,5.8,100.5,6.6L100.5,6.6z"/>
	</g>
</g>
</svg>
