<?xml version="1.0" encoding="utf-8"?>
<!-- Generator: Adobe Illustrator 23.0.1, SVG Export Plug-In . SVG Version: 6.00 Build 0)  -->
<svg version="1.1" id="Ebene_1" xmlns="http://www.w3.org/2000/svg" xmlns:xlink="http://www.w3.org/1999/xlink" x="0px" y="0px"
	 viewBox="0 0 224 96" style="enable-background:new 0 0 224 96;" xml:space="preserve">
<style type="text/css">
	.st0{fill:#EDF2F4;}
	.st1{fill:none;}
	.st2{fill:none;stroke:#99C1B9;stroke-width:3;stroke-linecap:round;stroke-linejoin:round;}
	.st3{fill:none;stroke:#000000;stroke-width:3;stroke-linecap:round;stroke-linejoin:round;}
	.st4{fill:#99C1B9;}
	.st5{fill:none;stroke:#EDF2F4;stroke-width:3;stroke-linecap:round;stroke-linejoin:round;}
</style>
<rect class="st0" width="96" height="96"/>
<g>
	<rect class="st1" width="96" height="96"/>
</g>
<g>
	<g>
		<polyline class="st2" points="3.2,6.9 5.8,5.5 5.7,8.8 15.5,3.1 8,11.1 15.3,6.9 4,17.7 26.1,4.9 1.7,22.3 34.2,3.6 4.2,24.1 
			38.9,4.1 2.2,29.2 41.1,6.7 7.3,29.5 47.6,6.3 7.4,32.9 56.3,4.7 7.2,36.8 62.4,4.9 5.8,41 70.8,3.5 3.8,44.6 70,6.4 7.4,46.2 
			79.7,4.5 6.5,50.7 82.4,6.8 1.6,56.7 90,5.7 6.2,57.5 90.5,8.8 5.3,60.9 87.8,13.3 5.1,64.1 87.9,16.3 5.6,66.2 89.3,17.8 
			7.7,69.4 91.5,21 1.7,75.4 90.7,24 4.9,76.4 92.7,25.7 2.5,82.1 92.1,30.4 3.3,85.3 89.3,35.7 2.8,89 93.2,36.8 6,91.6 88.3,44.1 
			13.9,90.5 89.4,46.9 19.2,91.8 89.5,51.2 29.9,89.9 88.9,55.8 32.1,92.8 90.6,59.1 40.9,92 93.7,61.5 51,90.4 94.1,65.5 53.5,92 
			90.8,70.4 64.6,89.3 89.7,74.8 68.9,91 93.3,77 76.5,89.1 92.4,80 80.5,89.6 93,82.4 85,89.7 89.4,87.2 89.8,90.6 92.7,88.9 		"/>
		<g>
			<polyline class="st3" points="8.8,4.5 11.2,3.1 11.6,6.6 17.6,3.1 18.6,6.4 20.4,5.4 22.6,6.5 26.7,4.1 28.9,5.5 30.5,4.5 
				35.9,5.8 40.7,3.1 41.2,7.1 47.5,3.4 50.7,5.5 52.3,4.5 57.5,5.5 59.1,4.5 63.6,4.5 65.9,3.1 65.5,6.7 71.5,3.2 75.6,5.4 
				77.2,4.5 79.7,5.4 81.3,4.5 85.2,5.4 86.8,4.5 90.5,5.6 91.4,5.1 90.5,10.1 91.4,9.5 90.7,13.9 93,12.5 90.5,17.8 91.4,17.3 
				90.5,21.9 91.5,21.4 90.3,26.5 94.6,24 89.3,31.3 91.7,29.9 92,33.6 94.3,32.3 90.5,38.5 91.5,38 90.5,41.5 91.5,41 88.1,47.6 
				89.7,46.6 90.5,49.9 91.5,49.4 88,55.3 93.8,52.1 90.5,56.9 91.5,56.3 88,61.9 89.9,60.8 90.5,63.9 91.5,63.4 90.4,67.1 
				92.2,66.1 88.9,71.4 91.5,70 90.5,74.4 91.5,73.9 91.7,77.5 93.4,76.6 90.6,81.7 91.5,81.2 90.8,84.7 93,83.4 90.6,88.7 
				91.5,88.2 			"/>
			<polyline class="st3" points="2.8,6.5 5.3,5 5.2,8.3 8.8,6.2 4.6,12.4 5.4,11.8 3.5,17.2 5.7,15.9 1.3,21.8 7.9,18 3.7,23.7 
				7,21.8 1.7,28.7 2.5,28.3 4.6,30.4 5.5,29.9 4.6,33.8 5.5,33.3 4.6,37.6 5.5,37.1 5.3,40.6 8,39 4.6,43.4 5.5,42.9 4.6,47.1 
				5.5,46.6 4.6,51 5.5,50.5 1.1,56.3 4.5,54.3 4.6,57.7 5.5,57.2 4.6,60.6 5.5,60.1 4.6,63.6 5.5,63.1 4.6,66 5.5,65.5 4.6,70.4 
				5.5,69.9 1.2,74.9 5.3,72.6 4.5,76 7.3,74.4 2,81.6 6.6,79 2.8,84.9 3.8,84.3 2.3,88.6 7.7,85.4 3.9,92.1 3.9,92.1 10.9,91.5 
				12.5,90.6 17.1,92.3 18.6,91.4 25.9,91.5 27.5,90.6 30,93.3 34.3,90.8 38.8,92.5 44.8,89 48.9,90.8 52.5,88.8 51.4,92.5 
				54.6,90.6 59.5,91.5 61.1,90.5 66.8,91.5 70.8,89.2 71.2,91.5 72.8,90.5 78.4,90.1 79.5,89.4 80.6,91.4 82.2,90.5 87.7,91 
				90.3,89.5 			"/>
		</g>
	</g>
</g>
<rect x="96" class="st0" width="32" height="32"/>
<g>
	<rect x="128" class="st4" width="32" height="32"/>
</g>
<g>
	<rect x="128" y="32" class="st4" width="32" height="32"/>
</g>
<rect x="160" y="32" class="st0" width="32" height="32"/>
<g>
	<rect x="160" class="st4" width="32" height="32"/>
</g>
<g>
	<rect x="192" class="st4" width="32" height="32"/>
</g>
<g>
	<rect x="192" y="32" class="st4" width="32" height="32"/>
</g>
<g>
	<rect x="192" y="64" class="st4" width="32" height="32"/>
</g>
<g>
	<rect x="160" y="64" class="st4" width="32" height="32"/>
</g>
<g>
	<rect x="128" y="64" class="st4" width="32" height="32"/>
</g>
<rect x="96" y="64" class="st0" width="32" height="32"/>
<g>
	<rect x="96" y="64" class="st4" width="32" height="32"/>
</g>
<g>
	<rect x="96" y="32" class="st4" width="32" height="32"/>
</g>
<g>
	<g>
		<polyline class="st5" points="155.5,27.6 157.6,26.4 156,29.9 159.8,27.7 155.9,33.5 166.4,27.4 152.8,38.9 174.4,26.4 
			154.6,42.1 183.6,25.3 156.5,45.5 189.2,26.7 155.7,48.6 193.4,26.8 156.8,51.8 200,26.8 158.3,53.5 197.5,30.9 154.3,58.2 
			196.1,34.1 153.6,62.3 199.5,35.8 154.9,65.4 195,42.2 157.4,67.2 199.5,42.9 159.8,69.8 198,47.8 168.2,67.9 199.5,49.9 
			169.7,70.2 195.5,55.3 178.3,69.5 196.9,58.7 183.3,70.4 194,64.2 191.5,69.4 196.8,66.3 		"/>
		<g>
			<polyline class="st3" points="154.2,29.1 156.1,28 160.8,28.4 162,27.8 168.7,27.5 170.3,26.5 172.9,29.1 179,25.6 180.5,28.3 
				182.2,27.3 189.5,26.5 190.9,25.7 193,27.4 194.6,26.5 198.6,28.5 200.1,27.7 196.5,32.8 197.4,32.3 195.2,37.1 198.8,35 
				199,38.5 199.6,38.2 194.1,45.1 194.5,44.8 196.5,47.9 197.5,47.4 195.5,51.8 199.2,49.6 197.1,53.8 197.8,53.3 195,59.2 
				196.5,58.3 196.5,61.2 197.5,60.6 194,67.2 194.7,66.8 			"/>
			<polyline class="st3" points="155,27.1 157.1,25.9 154.6,30 155.4,29.5 154.6,33.5 155.4,33 152.3,38.4 156.4,36 154.1,41.6 
				158.4,39.1 154.6,45.9 155.5,45.4 155.2,48.1 155.8,47.8 156.3,51.3 158.5,50 154.6,54.9 155.5,54.4 153.8,57.7 154.6,57.3 
				153.1,61.9 158,59 154.6,64.8 155.5,64.3 156.9,66.8 158,66.2 157.6,70.3 161.7,68 166,68.4 168.3,67.1 167.6,70.7 169.8,69.4 
				176.1,70 178.5,68.6 181.2,70.9 182.2,70.3 189.4,69.9 191.5,68.6 195,70 199.7,67.3 			"/>
		</g>
	</g>
</g>
</svg>
