<svg id="Ebene_1" data-name="Ebene 1" xmlns="http://www.w3.org/2000/svg" viewBox="0 0 12000 4000"><defs><style>.cls-1,.cls-4{fill:#4d4d4d;}.cls-2,.cls-3{fill:none;}.cls-2,.cls-3,.cls-4{stroke:#4d4d4d;stroke-linecap:round;stroke-width:333.33px;}.cls-2{stroke-miterlimit:10;}.cls-3,.cls-4{stroke-linejoin:round;}.cls-5{fill:#fff;}</style></defs><title>Tileset_basic</title><rect class="cls-1" x="11000" y="1000" width="1000" height="1000"/><rect class="cls-1" x="10000" y="3000" width="1000" height="1000"/><rect class="cls-1" x="8000" y="2000" width="1000" height="1000"/><rect class="cls-1" x="9000" width="1000" height="1000"/><rect class="cls-1" x="4000" width="1000" height="1000"/><rect class="cls-1" x="4000" y="3000" width="1000" height="1000"/><rect class="cls-1" x="7000" width="1000" height="1000"/><rect class="cls-1" x="7000" y="3000" width="1000" height="1000"/><line class="cls-2" x1="500" y1="500" x2="500" y2="2500"/><line class="cls-2" x1="3500" y1="3500" x2="1500" y2="3500"/><rect class="cls-3" x="1500" y="500" width="2000" height="2000"/><line class="cls-2" x1="3490" y1="1500" x2="1510" y2="1500"/><line class="cls-2" x1="2500" y1="2490" x2="2500" y2="510"/><path class="cls-1" d="M500,3333.33A166.67,166.67,0,1,0,666.67,3500,166.67,166.67,0,0,0,500,3333.33Z"/><rect class="cls-4" x="4500" y="500" width="3000" height="3000"/><rect class="cls-4" x="8500" y="500" width="3000" height="3000"/><circle class="cls-5" cx="5000" cy="1000" r="333.33"/><circle class="cls-5" cx="7000" cy="1000" r="333.33"/><circle class="cls-5" cx="7000" cy="3000" r="333.33"/><circle class="cls-5" cx="5000" cy="3000" r="333.33"/><path class="cls-5" d="M10000,3000V2666.67c184.09,0,333.33,149.24,333.33,333.33Z"/><path class="cls-5" d="M10000,4000V3666.67c184.09,0,333.33,149.24,333.33,333.33Z"/><path class="cls-5" d="M8000,3000V2666.67c184.09,0,333.33,149.24,333.33,333.33Z"/><path class="cls-5" d="M4000,1000V666.67c184.09,0,333.33,149.24,333.33,333.33Z"/><path class="cls-5" d="M11000,2000v333.33c-184.09,0-333.33-149.24-333.33-333.33Z"/><path class="cls-5" d="M12000,1000v333.33c-184.09,0-333.33-149.24-333.33-333.33Z"/><path class="cls-5" d="M10000,0V333.33c-184.09,0-333.33-149.24-333.33-333.33Z"/><path class="cls-5" d="M5000,0V333.33c-184.09,0-333.33-149.24-333.33-333.33Z"/><path class="cls-5" d="M7000,4000V3666.67c184.09,0,333.33,149.24,333.33,333.33Z"/><path class="cls-5" d="M8000,3000v333.33c-184.09,0-333.33-149.24-333.33-333.33Z"/><path class="cls-5" d="M7000,0h333.33c0,184.09-149.24,333.33-333.33,333.33Z"/><path class="cls-5" d="M8000,1000H7666.67c0-184.09,149.24-333.33,333.33-333.33Z"/><path class="cls-5" d="M4000,3000h333.33c0,184.09-149.24,333.33-333.33,333.33Z"/><path class="cls-5" d="M5000,4000H4666.67c0-184.09,149.24-333.33,333.33-333.33Z"/><path class="cls-5" d="M9000,1000h333.33c0,184.09-149.24,333.33-333.33,333.33Z"/><path class="cls-5" d="M9000,0h333.33c0,184.09-149.24,333.33-333.33,333.33Z"/><path class="cls-5" d="M8000,2000h333.33c0,184.09-149.24,333.33-333.33,333.33Z"/><path class="cls-5" d="M10000,2000H9666.67c0-184.09,149.24-333.33,333.33-333.33Z"/><path class="cls-5" d="M12000,2000h-333.33c0-184.09,149.24-333.33,333.33-333.33Z"/><path class="cls-5" d="M11000,4000h-333.33c0-184.09,149.24-333.33,333.33-333.33Z"/><rect class="cls-5" x="10000" y="1000" width="1000" height="1000"/></svg>