<svg xmlns="http://www.w3.org/2000/svg" viewBox="0 0 1024 1024"><defs><style>.cls-1{fill:#185689;}</style></defs><title>bubble_face_04_dead</title><g id="Doodles"><path class="cls-1" d="M390,714.36q26.69,22.77,54.32,44.38c8.67,6.78,21-5.38,12.23-12.23q-27.63-21.62-54.32-44.39c-8.42-7.19-20.72,5-12.23,12.24Z"/><path class="cls-1" d="M406.81,781.71a344.73,344.73,0,0,1,56.87-89.6c7.32-8.34-4.87-20.62-12.23-12.24A359.56,359.56,0,0,0,391.87,773c-4.44,10.09,10.46,18.91,14.94,8.73Z"/><path class="cls-1" d="M566.59,696a243,243,0,0,0,20.69,24.82c7.63,7.88,18,14.55,23.72,23.95s20.77.79,14.93-8.74c-5.59-9.13-14.1-15.34-21.69-22.71a208.42,208.42,0,0,1-22.71-26.05C575,678.4,560,687,566.59,696Z"/><path class="cls-1" d="M573.84,764.82a266.14,266.14,0,0,1,46.34-72.32c7.43-8.25-4.76-20.53-12.23-12.23a279.84,279.84,0,0,0-49.05,75.82c-4.41,10.1,10.5,18.92,14.94,8.73Z"/><path class="cls-1" d="M458.38,789.69a374.79,374.79,0,0,1,89.38-34.47c10.81-2.66,6.23-19.35-4.6-16.69a393.74,393.74,0,0,0-93.51,36.22c-9.8,5.3-1.07,20.25,8.73,14.94Z"/><path class="cls-1" d="M487.23,771.67c7.42,16,25.38,44.46,46.82,37.18,23.18-7.88,20.27-37.56,11.72-54.87-4.94-10-19.86-1.22-14.94,8.73,2.82,5.71,5,11.84,4.26,18.29-.77,6.77-4.64,13.76-12,10-9.52-4.82-16.69-18.93-20.94-28.11-4.67-10.09-19.59-1.31-14.94,8.73Z"/><path class="cls-1" d="M507.89,762.44a83,83,0,0,0,5,11,8.65,8.65,0,0,0,14.93-8.73,51.88,51.88,0,0,1-3.23-6.92c-1.62-4.37-5.85-7.35-10.64-6-4.2,1.16-7.67,6.24-6,10.64Z"/></g></svg>