<svg xmlns="http://www.w3.org/2000/svg" viewBox="0 0 60 50"><defs><style>.cls-1{fill:#185689;}</style></defs><title>bubble_face_01_normal</title><g id="Doodles"><path class="cls-1" d="M14.91,18.22a5.58,5.58,0,0,0-4.53,4.62,1.52,1.52,0,0,0,1,1.84A3.82,3.82,0,0,0,16,20.78a1.56,1.56,0,0,0-1.5-1.5C11.64,18.94,9.92,23,11.93,25c2.19,2.17,6.13.14,6-2.8-.12-3.31-4.47-4.72-6.71-2.49a4.39,4.39,0,0,0,1.61,7.18A3.37,3.37,0,0,0,16,21c-1.54-1.16-3,1.44-1.51,2.59-.1-.07,0,.34-.27.46s-.89-.21-1.08-.49c-.48-.69-.1-2.11.88-2s1.27,1.4.16,1.36c-.42,0-.08-.68.32-.63L13,20.78c0,.45-.22,1.12-.82,1l1,1.85a2.78,2.78,0,0,1,2.43-2.53c1.9-.32,1.1-3.21-.79-2.89Z"/><path class="cls-1" d="M43.33,20.24a5.6,5.6,0,0,0,.06,6.5,1.52,1.52,0,0,0,2,.54,3.81,3.81,0,0,0,.49-6,1.55,1.55,0,0,0-2.12,0c-2.27,1.77-.68,5.79,2.08,5.88,3,.09,4.58-3.94,2.59-6A4,4,0,0,0,41.87,23a4.4,4.4,0,0,0,5.64,5,3.49,3.49,0,0,0,2.41-4,3.33,3.33,0,0,0-3.84-2.57,1.51,1.51,0,0,0-1,1.84,1.54,1.54,0,0,0,1.85,1c-.37.05.18.07.12.34s.06.08-.11.32c-.29.42-1.08.33-1.43.11-.77-.48-1-1.77,0-2.06.58-.17,1.42.38.72,1-.41.33-.59-.36-.26-.61H43.81c.36.3.63,1,.12,1.3l2,.54a2.77,2.77,0,0,1-.06-3.48c1.12-1.57-1.48-3.07-2.59-1.51Z"/><path class="cls-1" d="M20,23.38C21.94,34,36,34.68,39.77,25c.7-1.8-2.2-2.58-2.89-.8-2.83,7.27-12.65,5.75-14-1.57-.36-1.9-3.25-1.1-2.9.79Z"/></g></svg>