<svg xmlns="http://www.w3.org/2000/svg" viewBox="0 0 60 50"><defs><style>.cls-1{fill:#185689;}.cls-2{fill:#edafb8;}</style></defs><title>bubble_face_02_blush</title><g id="Doodles"><path class="cls-1" d="M20,23.38C21.94,34,36,34.68,39.77,25c.7-1.8-2.2-2.58-2.89-.8-2.83,7.27-12.65,5.75-14-1.57-.36-1.9-3.25-1.1-2.9.79Z"/><path class="cls-1" d="M49.39,19.59A12.42,12.42,0,0,0,41.79,24a1.52,1.52,0,0,0,1.46,2.51c2-.32,4.06-.59,5.83.6,1.6,1.09,3.11-1.51,1.51-2.59-2.46-1.66-5.35-1.34-8.14-.9l1.46,2.5a10,10,0,0,1,6.27-3.66c1.9-.32,1.1-3.21-.79-2.89Z"/><path class="cls-1" d="M10.46,22.48a10,10,0,0,1,6.28,3.66l1.46-2.5c-2.79-.44-5.68-.76-8.15.9-1.59,1.08-.09,3.68,1.52,2.59,1.77-1.19,3.82-.92,5.83-.6A1.51,1.51,0,0,0,18.86,24a12.44,12.44,0,0,0-7.6-4.43c-1.89-.32-2.7,2.57-.8,2.89Z"/><path class="cls-2" d="M42,32.84a5.16,5.16,0,0,1,2.44-1.39c.53-.15,2.58-.74,2.92-.12l-.15-1.15,0,.29.69-.9a10.44,10.44,0,0,1-3,.83c-.47.09-.93.18-1.4.24l-.73.09c-.67-.1-.75.06-.24.49-.4-1.89-3.29-1.09-2.89.8.51,2.44,3.44,1.72,5.22,1.43,1.6-.27,5.21-.52,5.33-2.67S47.43,28,45.75,28.16a9.15,9.15,0,0,0-5.9,2.56c-1.33,1.39.79,3.51,2.13,2.12Z"/><path class="cls-2" d="M20.89,30.72A9.12,9.12,0,0,0,15,28.16c-1.67-.13-4.49.41-4.36,2.62s3.72,2.4,5.33,2.67c1.79.29,4.71,1,5.22-1.43.4-1.89-2.49-2.69-2.89-.8.45-.35.47-.51,0-.47s-.67-.06-1-.11-.93-.15-1.4-.24a10.29,10.29,0,0,1-3-.83l.69.9-.06-.29-.15,1.15c.35-.63,2.41,0,2.92.12a5.1,5.1,0,0,1,2.45,1.39c1.34,1.39,3.45-.73,2.12-2.12Z"/></g></svg>