<svg xmlns="http://www.w3.org/2000/svg" viewBox="0 0 60 50"><defs><style>.cls-1{fill:#185689;}</style></defs><title>bubble_face_04_dead</title><g id="Doodles"><path class="cls-1" d="M9.31,20.61q4.62,3.95,9.42,7.69c1.5,1.18,3.64-.93,2.12-2.12q-4.79-3.75-9.42-7.69c-1.46-1.25-3.59.86-2.12,2.12Z"/><path class="cls-1" d="M12.22,32.29a59.89,59.89,0,0,1,9.87-15.54c1.27-1.45-.85-3.58-2.13-2.12A62.35,62.35,0,0,0,9.63,30.77c-.77,1.75,1.82,3.28,2.59,1.52Z"/><path class="cls-1" d="M39.93,17.42a42.27,42.27,0,0,0,3.59,4.31c1.32,1.37,3.11,2.52,4.11,4.15s3.61.14,2.59-1.51a21.25,21.25,0,0,0-3.76-3.94,36.77,36.77,0,0,1-3.94-4.52c-1.13-1.54-3.74,0-2.59,1.51Z"/><path class="cls-1" d="M41.19,29.36a46,46,0,0,1,8-12.54c1.28-1.43-.83-3.56-2.13-2.12a48.57,48.57,0,0,0-8.5,13.14c-.77,1.76,1.82,3.29,2.59,1.52Z"/><path class="cls-1" d="M21.17,33.67a65.12,65.12,0,0,1,15.5-6c1.87-.46,1.08-3.35-.8-2.89a68.33,68.33,0,0,0-16.22,6.28c-1.7.92-.18,3.51,1.52,2.59Z"/><path class="cls-1" d="M26.17,30.55c1.29,2.77,4.4,7.71,8.12,6.44,4-1.36,3.52-6.51,2-9.51-.85-1.73-3.44-.21-2.59,1.51a5.7,5.7,0,0,1,.74,3.17c-.13,1.18-.81,2.39-2.08,1.75-1.65-.84-2.89-3.29-3.63-4.88-.81-1.75-3.4-.23-2.59,1.52Z"/><path class="cls-1" d="M29.75,29a14.93,14.93,0,0,0,.87,1.91,1.5,1.5,0,0,0,2.59-1.51,8.32,8.32,0,0,1-.56-1.2,1.55,1.55,0,0,0-1.85-1A1.52,1.52,0,0,0,29.75,29Z"/></g></svg>