<svg xmlns="http://www.w3.org/2000/svg" viewBox="0 0 1024 1024"><defs><style>.cls-1{fill:#185689;}.cls-2{fill:#edafb8;}</style></defs><title>bubble_face_03_blush</title><g id="Doodles"><path class="cls-1" d="M451.45,730.37c11.39,61,92.43,65.15,114.2,9.08,4-10.38-12.69-14.88-16.68-4.6-16.28,41.93-73,33.13-80.84-9.08-2-10.93-18.72-6.3-16.68,4.6Z"/><path class="cls-1" d="M621.11,708.49a71.81,71.81,0,0,0-43.83,25.57c-5.62,6.92-.32,15.84,8.42,14.45,11.57-1.83,23.42-3.42,33.64,3.48,9.25,6.25,17.91-8.73,8.73-14.94-14.22-9.61-30.9-7.76-47-5.22l8.41,14.46a57.56,57.56,0,0,1,36.19-21.11c11-1.85,6.31-18.52-4.59-16.69Z"/><path class="cls-1" d="M396.66,725.18a57.58,57.58,0,0,1,36.19,21.11l8.42-14.46c-16.07-2.54-32.76-4.38-47,5.22-9.17,6.2-.52,21.19,8.74,14.94,10.21-6.9,22.06-5.31,33.64-3.48,8.72,1.38,14-7.51,8.41-14.45a71.76,71.76,0,0,0-43.82-25.57c-10.89-1.83-15.57,14.84-4.6,16.69Z"/><path class="cls-2" d="M578.37,784.88c4-4.15,8.61-6.46,14.12-8,3-.85,14.84-4.27,16.84-.67l-.87-6.67-.33,1.68,4-5.17c-4.94,2.82-11.85,3.69-17.35,4.78-2.67.53-5.36,1-8.06,1.39l-4.2.5q-5.79-.87-1.38,2.83c-2.29-10.89-19-6.29-16.68,4.59,3,14.11,19.85,10,30.09,8.26,9.25-1.54,30-3,30.77-15.41.74-12.68-15.48-15.84-25.15-15.08-12.51,1-25.23,5.58-34,14.74-7.71,8,4.51,20.29,12.23,12.23Z"/><path class="cls-2" d="M456.77,772.65c-8.78-9.15-21.51-13.75-34-14.74-9.65-.76-25.89,2.38-25.15,15.08.74,12.51,21.46,13.86,30.77,15.41,10.28,1.71,27.12,5.86,30.09-8.26,2.29-10.86-14.38-15.5-16.68-4.59q3.93-3,.24-2.68c-1.94-.17-3.88-.38-5.82-.65-2.7-.37-5.39-.86-8.06-1.39-5.51-1.1-12.44-2-17.35-4.78l4,5.17-.33-1.68-.87,6.67c2-3.65,13.89-.16,16.84.67,5.52,1.55,10.11,3.83,14.12,8,7.72,8,19.94-4.19,12.23-12.23Z"/></g></svg>