<svg xmlns="http://www.w3.org/2000/svg" viewBox="0 0 1024 1024"><defs><style>.cls-1{fill:#185689;}</style></defs><title>bubble_face_01_normal-03</title><g id="Doodles"><path class="cls-1" d="M422.28,700.57c-13.21,2.23-24.24,13.36-26.13,26.66-.61,4.29,1,9.73,6.05,10.64,13.73,2.48,27.79-7.76,26.62-22.53-.41-5.09-3.67-8.06-8.65-8.65-16.73-2-26.64,21.49-15.07,32.95,12.65,12.53,35.36.79,34.73-16.18-.71-19.07-25.81-27.18-38.68-14.33s-7.93,35.56,9.24,41.4c21.14,7.19,36.28-20.42,18.44-33.81-8.9-6.69-17.53,8.33-8.73,14.94-.55-.42-.31,2-1.58,2.66-2,1-5.1-1.21-6.2-2.8-2.75-4-.57-12.2,5.1-11.71,5.16.45,7.28,8,.9,7.8-2.43-.08-.44-3.89,1.85-3.62l-8.65-8.65c.2,2.6-1.27,6.47-4.73,5.85l6,10.64c1.13-8,6-13.22,14-14.58,10.95-1.85,6.3-18.53-4.6-16.68Z"/><path class="cls-1" d="M586.16,712.23a32.41,32.41,0,0,0,.38,37.52c2.67,3.55,7.6,6,11.84,3.1,11.45-7.71,14-25.39,2.8-34.7-3.95-3.26-8.25-3.12-12.24,0-13.07,10.23-3.91,33.39,12,33.91,17.06.55,26.46-22.69,15-34.79-11.79-12.44-34.42-5.64-38.12,10.84-4.16,18.59,14.67,35.23,32.49,29.08,9.61-3.32,16.37-13,13.91-23.24-2.51-10.5-11.74-16.22-22.12-14.81-4.67.63-7.12,6.56-6,10.64,1.32,5,6,6.67,10.64,6-2.11.29,1,.43.68,2-.25,1.19.36.44-.6,1.83-1.67,2.44-6.27,1.91-8.3.63-4.4-2.77-5.83-10.21.06-11.89,3.35-1,8.24,2.24,4.15,5.56-2.35,1.9-3.35-2.06-1.47-3.54H588.94c2.1,1.74,3.62,5.57.7,7.53l11.84,3.1c-4.8-6.39-5-13.5-.38-20,6.46-9.1-8.54-17.75-14.94-8.74Z"/><path class="cls-1" d="M451.45,730.37c11.39,61,92.43,65.15,114.2,9.08,4-10.38-12.69-14.88-16.68-4.6-16.28,41.93-73,33.13-80.84-9.08-2-10.93-18.72-6.3-16.68,4.6Z"/></g></svg>