<svg xmlns="http://www.w3.org/2000/svg" viewBox="0 0 1024 1024"><defs><style>.cls-1{fill:#185689;}.cls-2{fill:#edafb8;}</style></defs><title>bubble_face_02_wink</title><g id="Doodles"><path class="cls-1" d="M422.28,700.57c-13.21,2.23-24.24,13.36-26.13,26.66-.61,4.29,1,9.73,6.05,10.64,13.73,2.48,27.79-7.76,26.62-22.53-.41-5.09-3.67-8.06-8.65-8.65-16.73-2-26.64,21.49-15.07,32.95,12.65,12.53,35.36.79,34.73-16.18-.71-19.07-25.81-27.18-38.68-14.33s-7.93,35.56,9.24,41.4c21.14,7.19,36.28-20.42,18.44-33.81-8.9-6.69-17.53,8.33-8.73,14.94-.55-.42-.31,2-1.58,2.66-2,1-5.1-1.21-6.2-2.8-2.75-4-.57-12.2,5.1-11.71,5.16.45,7.28,8,.9,7.8-2.43-.08-.44-3.89,1.85-3.62l-8.65-8.65c.2,2.6-1.27,6.47-4.73,5.85l6,10.64c1.13-8,6-13.22,14-14.58,10.95-1.85,6.3-18.53-4.6-16.68Z"/><path class="cls-1" d="M451.45,730.37c11.39,61,92.43,65.15,114.2,9.08,4-10.38-12.69-14.88-16.68-4.6-16.28,41.93-73,33.13-80.84-9.08-2-10.93-18.72-6.3-16.68,4.6Z"/><path class="cls-1" d="M621.11,708.49a71.81,71.81,0,0,0-43.83,25.57c-5.62,6.92-.32,15.84,8.42,14.45,11.57-1.83,23.42-3.42,33.64,3.48,9.25,6.25,17.91-8.73,8.73-14.94-14.22-9.61-30.9-7.76-47-5.22l8.41,14.46a57.56,57.56,0,0,1,36.19-21.11c11-1.85,6.31-18.52-4.59-16.69Z"/><path class="cls-2" d="M578.37,780.3c4-4.15,8.61-6.46,14.12-8,3-.84,14.84-4.27,16.84-.67l-.87-6.66-.33,1.68,4-5.17c-4.94,2.81-11.85,3.68-17.35,4.77-2.67.54-5.36,1-8.06,1.4l-4.2.49q-5.79-.87-1.38,2.83c-2.29-10.89-19-6.28-16.68,4.6,3,14.1,19.85,10,30.09,8.26,9.25-1.54,30-3,30.77-15.41.74-12.68-15.48-15.84-25.15-15.08-12.51,1-25.23,5.58-34,14.74-7.71,8,4.51,20.28,12.23,12.23Z"/></g></svg>